<?xml version="1.0"?>
<svg xmlns="http://www.w3.org/2000/svg" xmlns:xlink="http://www.w3.org/1999/xlink" xmlns:svgjs="http://svgjs.com/svgjs" version="1.1" width="30" height="30" x="0" y="0" viewBox="105 -90 512 512" style="enable-background:new 0 0 512 512" xml:space="preserve"><g transform="matrix(0.38,0,0,0.38,158.7200567626952,158.72030848634427)">
<g xmlns="http://www.w3.org/2000/svg">
	<g>
		<g>
			<path d="M59.999,0.003C26.916,0.003,0,26.918,0,60.002s26.916,59.999,59.999,59.999c11.046,0,20-8.954,20-20s-8.954-20-20-20     c-11.028,0-20-8.972-20-20s8.972-20,20-20s20,8.972,20,20c0,11.046,8.954,20,20,20s20-8.954,20-20     C119.999,26.918,93.083,0.003,59.999,0.003z" fill="#000000" data-original="#000000" style=""/>
			<path d="M500.151,374.627c-10.086-4.505-21.914,0.021-26.417,10.107c-23.673,53.01-76.47,87.264-134.509,87.264     c-81.181,0-147.228-66.045-147.228-147.227V187.229c0-81.181,66.046-147.227,147.228-147.227     c58.038,0,110.836,34.254,134.509,87.264c4.503,10.085,16.328,14.61,26.417,10.107c10.085-4.504,14.61-16.331,10.106-26.417     C480.158,43.555,413.024,0.003,339.226,0.003c-103.238,0-187.227,83.99-187.227,187.226v137.543     c0,103.237,83.989,187.226,187.227,187.226c73.798,0,140.933-43.552,171.031-110.954     C514.761,390.958,510.236,379.131,500.151,374.627z" fill="#000000" data-original="#000000" style=""/>
		</g>
	</g>
</g>
<g xmlns="http://www.w3.org/2000/svg">
</g>
<g xmlns="http://www.w3.org/2000/svg">
</g>
<g xmlns="http://www.w3.org/2000/svg">
</g>
<g xmlns="http://www.w3.org/2000/svg">
</g>
<g xmlns="http://www.w3.org/2000/svg">
</g>
<g xmlns="http://www.w3.org/2000/svg">
</g>
<g xmlns="http://www.w3.org/2000/svg">
</g>
<g xmlns="http://www.w3.org/2000/svg">
</g>
<g xmlns="http://www.w3.org/2000/svg">
</g>
<g xmlns="http://www.w3.org/2000/svg">
</g>
<g xmlns="http://www.w3.org/2000/svg">
</g>
<g xmlns="http://www.w3.org/2000/svg">
</g>
<g xmlns="http://www.w3.org/2000/svg">
</g>
<g xmlns="http://www.w3.org/2000/svg">
</g>
<g xmlns="http://www.w3.org/2000/svg">
</g>
</g></svg>
