<svg height="50" viewBox="0 -78 512 512" width="50" xmlns="http://www.w3.org/2000/svg"><path d="m489.761719 179.730469c-13.402344-17.777344-32.164063-31.25-53.121094-38.203125-.617187-37.054688-12.199219-71.105469-32.769531-96.171875-24.34375-29.671875-59.574219-45.355469-101.882813-45.355469-31.640625 0-56.980469 7.816406-77.480469 23.890625-18.644531 14.628906-30.21875 33.894531-38.269531 50.023437-10.0625-4.863281-21.179687-7.414062-32.429687-7.414062-40.847656 0-74.167969 33.035156-74.945313 73.941406-46.609375 13.667969-78.863281 56.730469-78.863281 105.914063 0 60.839843 49.167969 110.332031 109.605469 110.332031h292.773437c60.445313 0 109.621094-49.492188 109.621094-110.332031 0-24.285157-7.691406-47.324219-22.238281-66.625zm-87.382813 146.957031h-292.773437c-43.894531 0-79.605469-36.035156-79.605469-80.332031 0-36.6875 24.570312-68.683594 59.75-77.804688 11.617188-3.011719 19.480469-13.417969 19.121094-25.316406-.015625-.445313-.019532-.886719-.019532-1.335937 0-25.03125 20.167969-45.398438 44.957032-45.398438 7.679687 0 15.242187 1.980469 21.875 5.734375 6.136718 3.464844 13.503906 4.246094 20.214844 2.140625 6.699218-2.101562 12.285156-6.9375 15.324218-13.269531 9.957032-20.71875 19.765625-34.167969 31.800782-43.609375 15.011718-11.773438 34.296874-17.496094 58.964843-17.496094 33.023438 0 60.234375 11.890625 78.691407 34.382812 16.757812 20.425782 25.988281 48.941407 25.988281 80.359376-.011719 11.441406 7.308593 21.300781 18.214843 24.535156 33.628907 9.980468 57.117188 41.675781 57.117188 77.078125 0 44.296875-35.71875 80.332031-79.621094 80.332031zm0 0"/></svg>